{
	"patcher" : 	{
		"fileversion" : 1,
		"rect" : [ 34.0, 44.0, 731.0, 620.0 ],
		"bglocked" : 0,
		"defrect" : [ 34.0, 44.0, 731.0, 620.0 ],
		"openrect" : [ 0.0, 0.0, 0.0, 0.0 ],
		"openinpresentation" : 0,
		"default_fontsize" : 10.0,
		"default_fontface" : 0,
		"default_fontname" : "Arial Bold",
		"gridonopen" : 0,
		"gridsize" : [ 8.0, 8.0 ],
		"gridsnaponopen" : 0,
		"toolbarvisible" : 1,
		"boxanimatetime" : 200,
		"imprint" : 0,
		"enablehscroll" : 1,
		"enablevscroll" : 1,
		"devicewidth" : 0.0,
		"boxes" : [ 			{
				"box" : 				{
					"maxclass" : "comment",
					"text" : "< Ramp",
					"id" : "obj-65",
					"fontname" : "Arial Italic",
					"numoutlets" : 0,
					"fontsize" : 10.0,
					"frgb" : [ 0.101961, 0.121569, 0.172549, 1.0 ],
					"numinlets" : 1,
					"patching_rect" : [ 576.0, 464.0, 46.0, 18.0 ]
				}

			}
, 			{
				"box" : 				{
					"maxclass" : "comment",
					"text" : "Coeff.",
					"id" : "obj-62",
					"fontname" : "Arial",
					"numoutlets" : 0,
					"fontsize" : 10.0,
					"frgb" : [ 0.101961, 0.121569, 0.172549, 1.0 ],
					"numinlets" : 1,
					"patching_rect" : [ 216.0, 296.0, 37.0, 18.0 ]
				}

			}
, 			{
				"box" : 				{
					"maxclass" : "flonum",
					"prototypename" : "Live",
					"id" : "obj-59",
					"fontname" : "Arial Bold",
					"numoutlets" : 2,
					"outlettype" : [ "float", "bang" ],
					"fontsize" : 10.0,
					"triscale" : 0.75,
					"numinlets" : 1,
					"patching_rect" : [ 176.0, 296.0, 40.0, 18.0 ]
				}

			}
, 			{
				"box" : 				{
					"maxclass" : "comment",
					"text" : "<---------------------------------------------",
					"id" : "obj-57",
					"fontname" : "Arial",
					"numoutlets" : 0,
					"fontsize" : 10.0,
					"frgb" : [ 0.101961, 0.121569, 0.172549, 1.0 ],
					"numinlets" : 1,
					"patching_rect" : [ 400.0, 272.0, 166.0, 18.0 ]
				}

			}
, 			{
				"box" : 				{
					"maxclass" : "comment",
					"text" : "Control",
					"id" : "obj-52",
					"fontname" : "Arial Bold Italic",
					"numoutlets" : 0,
					"fontsize" : 12.0,
					"frgb" : [ 0.101961, 0.121569, 0.172549, 1.0 ],
					"numinlets" : 1,
					"patching_rect" : [ 352.0, 464.0, 53.0, 20.0 ]
				}

			}
, 			{
				"box" : 				{
					"maxclass" : "comment",
					"text" : "Signal",
					"id" : "obj-50",
					"fontname" : "Arial Bold Italic",
					"numoutlets" : 0,
					"fontsize" : 12.0,
					"frgb" : [ 0.101961, 0.121569, 0.172549, 1.0 ],
					"numinlets" : 1,
					"patching_rect" : [ 208.0, 464.0, 49.0, 20.0 ]
				}

			}
, 			{
				"box" : 				{
					"maxclass" : "comment",
					"text" : "[-1. 1.]",
					"id" : "obj-49",
					"fontname" : "Arial",
					"numoutlets" : 0,
					"fontsize" : 10.0,
					"frgb" : [ 0.101961, 0.121569, 0.172549, 1.0 ],
					"numinlets" : 1,
					"patching_rect" : [ 216.0, 248.0, 39.0, 18.0 ]
				}

			}
, 			{
				"box" : 				{
					"maxclass" : "comment",
					"text" : "Ramp",
					"id" : "obj-44",
					"fontname" : "Arial Bold",
					"numoutlets" : 0,
					"fontsize" : 10.0,
					"frgb" : [ 0.101961, 0.121569, 0.172549, 1.0 ],
					"numinlets" : 1,
					"patching_rect" : [ 520.0, 368.0, 38.0, 18.0 ]
				}

			}
, 			{
				"box" : 				{
					"maxclass" : "comment",
					"text" : "ms",
					"id" : "obj-47",
					"fontname" : "Arial",
					"numoutlets" : 0,
					"fontsize" : 10.0,
					"frgb" : [ 0.101961, 0.121569, 0.172549, 1.0 ],
					"numinlets" : 1,
					"patching_rect" : [ 520.0, 400.0, 25.0, 18.0 ]
				}

			}
, 			{
				"box" : 				{
					"maxclass" : "flonum",
					"prototypename" : "Live",
					"id" : "obj-48",
					"fontname" : "Arial Bold",
					"numoutlets" : 2,
					"outlettype" : [ "float", "bang" ],
					"fontsize" : 10.0,
					"triscale" : 0.75,
					"numinlets" : 1,
					"patching_rect" : [ 512.0, 384.0, 39.0, 18.0 ]
				}

			}
, 			{
				"box" : 				{
					"maxclass" : "comment",
					"text" : "Rate",
					"id" : "obj-37",
					"fontname" : "Arial Bold",
					"numoutlets" : 0,
					"fontsize" : 10.0,
					"frgb" : [ 0.101961, 0.121569, 0.172549, 1.0 ],
					"numinlets" : 1,
					"patching_rect" : [ 480.0, 368.0, 32.0, 18.0 ]
				}

			}
, 			{
				"box" : 				{
					"maxclass" : "comment",
					"text" : "ms",
					"id" : "obj-39",
					"fontname" : "Arial",
					"numoutlets" : 0,
					"fontsize" : 10.0,
					"frgb" : [ 0.101961, 0.121569, 0.172549, 1.0 ],
					"numinlets" : 1,
					"patching_rect" : [ 480.0, 400.0, 25.0, 18.0 ]
				}

			}
, 			{
				"box" : 				{
					"maxclass" : "flonum",
					"prototypename" : "Live",
					"id" : "obj-42",
					"fontname" : "Arial Bold",
					"numoutlets" : 2,
					"outlettype" : [ "float", "bang" ],
					"fontsize" : 10.0,
					"triscale" : 0.75,
					"numinlets" : 1,
					"patching_rect" : [ 472.0, 384.0, 39.0, 18.0 ]
				}

			}
, 			{
				"box" : 				{
					"maxclass" : "comment",
					"text" : "Grain",
					"id" : "obj-26",
					"fontname" : "Arial Bold",
					"numoutlets" : 0,
					"fontsize" : 10.0,
					"frgb" : [ 0.101961, 0.121569, 0.172549, 1.0 ],
					"numinlets" : 1,
					"patching_rect" : [ 560.0, 368.0, 37.0, 18.0 ]
				}

			}
, 			{
				"box" : 				{
					"maxclass" : "comment",
					"text" : "ms",
					"id" : "obj-31",
					"fontname" : "Arial",
					"numoutlets" : 0,
					"fontsize" : 10.0,
					"frgb" : [ 0.101961, 0.121569, 0.172549, 1.0 ],
					"numinlets" : 1,
					"patching_rect" : [ 560.0, 400.0, 25.0, 18.0 ]
				}

			}
, 			{
				"box" : 				{
					"maxclass" : "flonum",
					"prototypename" : "Live",
					"id" : "obj-35",
					"fontname" : "Arial Bold",
					"numoutlets" : 2,
					"outlettype" : [ "float", "bang" ],
					"fontsize" : 10.0,
					"triscale" : 0.75,
					"numinlets" : 1,
					"patching_rect" : [ 552.0, 384.0, 39.0, 18.0 ]
				}

			}
, 			{
				"box" : 				{
					"maxclass" : "newobj",
					"text" : "loadmess 50.",
					"id" : "obj-10",
					"fontname" : "Arial Bold",
					"numoutlets" : 1,
					"outlettype" : [ "" ],
					"fontsize" : 10.0,
					"numinlets" : 1,
					"patching_rect" : [ 512.0, 151.0, 73.0, 18.0 ]
				}

			}
, 			{
				"box" : 				{
					"maxclass" : "comment",
					"text" : "<------------------------------",
					"id" : "obj-36",
					"fontname" : "Arial",
					"numoutlets" : 0,
					"fontsize" : 10.0,
					"frgb" : [ 0.101961, 0.121569, 0.172549, 1.0 ],
					"numinlets" : 1,
					"patching_rect" : [ 488.0, 416.0, 116.0, 18.0 ]
				}

			}
, 			{
				"box" : 				{
					"maxclass" : "comment",
					"text" : "Logarithmic filter >",
					"id" : "obj-23",
					"fontname" : "Arial Italic",
					"numoutlets" : 0,
					"fontsize" : 10.0,
					"frgb" : [ 0.101961, 0.121569, 0.172549, 1.0 ],
					"numinlets" : 1,
					"patching_rect" : [ 161.0, 399.0, 92.0, 18.0 ]
				}

			}
, 			{
				"box" : 				{
					"maxclass" : "newobj",
					"text" : "p Convert",
					"id" : "obj-25",
					"fontname" : "Arial Bold",
					"numoutlets" : 1,
					"color" : [ 0.545098, 0.85098, 0.592157, 1.0 ],
					"outlettype" : [ "int" ],
					"fontsize" : 10.0,
					"numinlets" : 1,
					"patching_rect" : [ 296.0, 344.0, 57.0, 18.0 ],
					"patcher" : 					{
						"fileversion" : 1,
						"rect" : [ 659.0, 44.0, 301.0, 168.0 ],
						"bglocked" : 0,
						"defrect" : [ 659.0, 44.0, 301.0, 168.0 ],
						"openrect" : [ 0.0, 0.0, 0.0, 0.0 ],
						"openinpresentation" : 0,
						"default_fontsize" : 10.0,
						"default_fontface" : 0,
						"default_fontname" : "Arial Bold",
						"gridonopen" : 0,
						"gridsize" : [ 8.0, 8.0 ],
						"gridsnaponopen" : 0,
						"toolbarvisible" : 1,
						"boxanimatetime" : 200,
						"imprint" : 0,
						"enablehscroll" : 1,
						"enablevscroll" : 1,
						"devicewidth" : 0.0,
						"boxes" : [ 							{
								"box" : 								{
									"maxclass" : "comment",
									"text" : "Rate in samples",
									"id" : "obj-6",
									"fontname" : "Arial Bold",
									"numoutlets" : 0,
									"fontsize" : 10.0,
									"frgb" : [ 0.101961, 0.121569, 0.172549, 1.0 ],
									"numinlets" : 1,
									"patching_rect" : [ 112.0, 128.0, 87.0, 18.0 ]
								}

							}
, 							{
								"box" : 								{
									"maxclass" : "comment",
									"text" : "Rate in ms",
									"id" : "obj-5",
									"fontname" : "Arial Bold",
									"numoutlets" : 0,
									"fontsize" : 10.0,
									"frgb" : [ 0.101961, 0.121569, 0.172549, 1.0 ],
									"numinlets" : 1,
									"patching_rect" : [ 56.0, 16.0, 61.0, 18.0 ]
								}

							}
, 							{
								"box" : 								{
									"maxclass" : "comment",
									"text" : "Convert milliseconds to samples (according to actual sample rate), with rounding to nearest integer",
									"linecount" : 4,
									"id" : "obj-2",
									"fontname" : "Arial",
									"numoutlets" : 0,
									"fontsize" : 10.0,
									"frgb" : [ 0.101961, 0.121569, 0.172549, 1.0 ],
									"numinlets" : 1,
									"patching_rect" : [ 136.0, 48.0, 134.0, 52.0 ]
								}

							}
, 							{
								"box" : 								{
									"maxclass" : "newobj",
									"text" : "i",
									"id" : "obj-27",
									"fontname" : "Arial Bold",
									"numoutlets" : 1,
									"outlettype" : [ "int" ],
									"fontsize" : 10.0,
									"numinlets" : 2,
									"patching_rect" : [ 88.0, 96.0, 32.5, 18.0 ]
								}

							}
, 							{
								"box" : 								{
									"maxclass" : "newobj",
									"text" : "round",
									"id" : "obj-17",
									"fontname" : "Arial Bold",
									"numoutlets" : 1,
									"outlettype" : [ "" ],
									"fontsize" : 10.0,
									"numinlets" : 2,
									"patching_rect" : [ 88.0, 72.0, 39.0, 18.0 ]
								}

							}
, 							{
								"box" : 								{
									"maxclass" : "newobj",
									"text" : "mstosamps~",
									"id" : "obj-4",
									"fontname" : "Arial Bold",
									"numoutlets" : 2,
									"outlettype" : [ "signal", "float" ],
									"fontsize" : 10.0,
									"numinlets" : 1,
									"patching_rect" : [ 32.0, 48.0, 75.0, 18.0 ]
								}

							}
, 							{
								"box" : 								{
									"maxclass" : "inlet",
									"id" : "obj-65",
									"numoutlets" : 1,
									"outlettype" : [ "float" ],
									"numinlets" : 0,
									"patching_rect" : [ 32.0, 16.0, 18.0, 18.0 ],
									"comment" : ""
								}

							}
, 							{
								"box" : 								{
									"maxclass" : "outlet",
									"id" : "obj-66",
									"numoutlets" : 0,
									"numinlets" : 1,
									"patching_rect" : [ 88.0, 128.0, 18.0, 18.0 ],
									"comment" : ""
								}

							}
 ],
						"lines" : [ 							{
								"patchline" : 								{
									"source" : [ "obj-27", 0 ],
									"destination" : [ "obj-66", 0 ],
									"hidden" : 0,
									"midpoints" : [  ]
								}

							}
, 							{
								"patchline" : 								{
									"source" : [ "obj-65", 0 ],
									"destination" : [ "obj-4", 0 ],
									"hidden" : 0,
									"midpoints" : [  ]
								}

							}
, 							{
								"patchline" : 								{
									"source" : [ "obj-17", 0 ],
									"destination" : [ "obj-27", 0 ],
									"hidden" : 0,
									"midpoints" : [  ]
								}

							}
, 							{
								"patchline" : 								{
									"source" : [ "obj-4", 1 ],
									"destination" : [ "obj-17", 0 ],
									"hidden" : 0,
									"midpoints" : [  ]
								}

							}
 ]
					}
,
					"saved_object_attributes" : 					{
						"fontname" : "Arial Bold",
						"default_fontsize" : 10.0,
						"globalpatchername" : "",
						"fontface" : 0,
						"fontsize" : 10.0,
						"default_fontface" : 0,
						"default_fontname" : "Arial Bold"
					}

				}

			}
, 			{
				"box" : 				{
					"maxclass" : "comment",
					"text" : "Samples",
					"id" : "obj-27",
					"fontname" : "Arial",
					"numoutlets" : 0,
					"fontsize" : 10.0,
					"frgb" : [ 0.101961, 0.121569, 0.172549, 1.0 ],
					"numinlets" : 1,
					"patching_rect" : [ 344.0, 368.0, 49.0, 18.0 ]
				}

			}
, 			{
				"box" : 				{
					"maxclass" : "number",
					"prototypename" : "Live",
					"id" : "obj-29",
					"fontname" : "Arial Bold",
					"numoutlets" : 2,
					"outlettype" : [ "int", "bang" ],
					"fontsize" : 10.0,
					"triscale" : 0.75,
					"numinlets" : 1,
					"patching_rect" : [ 296.0, 368.0, 48.0, 18.0 ]
				}

			}
, 			{
				"box" : 				{
					"maxclass" : "newobj",
					"text" : "slide~",
					"id" : "obj-4",
					"fontname" : "Arial Bold",
					"numoutlets" : 1,
					"outlettype" : [ "signal" ],
					"fontsize" : 10.0,
					"numinlets" : 3,
					"patching_rect" : [ 256.0, 399.0, 59.0, 18.0 ]
				}

			}
, 			{
				"box" : 				{
					"maxclass" : "newobj",
					"text" : "line 0. 0",
					"id" : "obj-24",
					"fontname" : "Arial Bold",
					"numoutlets" : 2,
					"outlettype" : [ "", "" ],
					"fontsize" : 10.0,
					"numinlets" : 3,
					"patching_rect" : [ 408.0, 464.0, 163.0, 18.0 ]
				}

			}
, 			{
				"box" : 				{
					"maxclass" : "newobj",
					"text" : "pack 0. 50.",
					"id" : "obj-22",
					"fontname" : "Arial Bold",
					"numoutlets" : 1,
					"outlettype" : [ "" ],
					"fontsize" : 10.0,
					"numinlets" : 2,
					"patching_rect" : [ 408.0, 440.0, 123.0, 18.0 ]
				}

			}
, 			{
				"box" : 				{
					"maxclass" : "comment",
					"text" : "Smooth",
					"id" : "obj-14",
					"fontname" : "Arial Bold",
					"numoutlets" : 0,
					"fontsize" : 10.0,
					"frgb" : [ 0.101961, 0.121569, 0.172549, 1.0 ],
					"numinlets" : 1,
					"patching_rect" : [ 304.0, 304.0, 48.0, 18.0 ]
				}

			}
, 			{
				"box" : 				{
					"maxclass" : "comment",
					"text" : "ms",
					"id" : "obj-15",
					"fontname" : "Arial",
					"numoutlets" : 0,
					"fontsize" : 10.0,
					"frgb" : [ 0.101961, 0.121569, 0.172549, 1.0 ],
					"numinlets" : 1,
					"patching_rect" : [ 344.0, 320.0, 25.0, 18.0 ]
				}

			}
, 			{
				"box" : 				{
					"maxclass" : "flonum",
					"prototypename" : "Live",
					"id" : "obj-17",
					"fontname" : "Arial Bold",
					"numoutlets" : 2,
					"outlettype" : [ "float", "bang" ],
					"fontsize" : 10.0,
					"triscale" : 0.75,
					"numinlets" : 1,
					"patching_rect" : [ 296.0, 320.0, 48.0, 18.0 ]
				}

			}
, 			{
				"box" : 				{
					"maxclass" : "comment",
					"text" : "Optional arguments set maximum averaging interval and default mode",
					"linecount" : 3,
					"id" : "obj-1",
					"fontname" : "Arial Italic",
					"numoutlets" : 0,
					"fontsize" : 10.0,
					"frgb" : [ 0.101961, 0.121569, 0.172549, 1.0 ],
					"numinlets" : 1,
					"patching_rect" : [ 560.0, 272.0, 123.0, 41.0 ]
				}

			}
, 			{
				"box" : 				{
					"maxclass" : "comment",
					"text" : "Active",
					"id" : "obj-76",
					"fontname" : "Arial Bold",
					"numoutlets" : 0,
					"fontsize" : 10.0,
					"frgb" : [ 0.101961, 0.121569, 0.172549, 1.0 ],
					"numinlets" : 1,
					"patching_rect" : [ 104.0, 152.0, 41.0, 18.0 ]
				}

			}
, 			{
				"box" : 				{
					"maxclass" : "comment",
					"text" : "Input",
					"id" : "obj-75",
					"fontname" : "Arial Bold",
					"numoutlets" : 0,
					"fontsize" : 10.0,
					"frgb" : [ 0.101961, 0.121569, 0.172549, 1.0 ],
					"numinlets" : 1,
					"patching_rect" : [ 144.0, 152.0, 35.0, 18.0 ]
				}

			}
, 			{
				"box" : 				{
					"maxclass" : "newobj",
					"text" : "p Amp~",
					"id" : "obj-74",
					"fontname" : "Arial Bold",
					"numoutlets" : 1,
					"color" : [ 0.545098, 0.85098, 0.592157, 1.0 ],
					"outlettype" : [ "signal" ],
					"fontsize" : 10.0,
					"numinlets" : 3,
					"patching_rect" : [ 56.0, 192.0, 99.0, 18.0 ],
					"patcher" : 					{
						"fileversion" : 1,
						"rect" : [ 672.0, 44.0, 256.0, 307.0 ],
						"bglocked" : 0,
						"defrect" : [ 672.0, 44.0, 256.0, 307.0 ],
						"openrect" : [ 0.0, 0.0, 0.0, 0.0 ],
						"openinpresentation" : 0,
						"default_fontsize" : 10.0,
						"default_fontface" : 0,
						"default_fontname" : "Arial Bold",
						"gridonopen" : 0,
						"gridsize" : [ 8.0, 8.0 ],
						"gridsnaponopen" : 0,
						"toolbarvisible" : 1,
						"boxanimatetime" : 200,
						"imprint" : 0,
						"enablehscroll" : 1,
						"enablevscroll" : 1,
						"devicewidth" : 0.0,
						"boxes" : [ 							{
								"box" : 								{
									"maxclass" : "comment",
									"text" : "< Multiply active by gain",
									"id" : "obj-17",
									"fontname" : "Arial",
									"numoutlets" : 0,
									"fontsize" : 10.0,
									"frgb" : [ 0.101961, 0.121569, 0.172549, 1.0 ],
									"numinlets" : 1,
									"patching_rect" : [ 112.0, 144.0, 117.0, 18.0 ]
								}

							}
, 							{
								"box" : 								{
									"maxclass" : "newobj",
									"text" : "* 1.",
									"id" : "obj-16",
									"fontname" : "Arial Bold",
									"numoutlets" : 1,
									"outlettype" : [ "float" ],
									"fontsize" : 10.0,
									"numinlets" : 2,
									"patching_rect" : [ 64.0, 144.0, 32.5, 18.0 ]
								}

							}
, 							{
								"box" : 								{
									"maxclass" : "newobj",
									"text" : "pak 1. 1.",
									"id" : "obj-15",
									"fontname" : "Arial Bold",
									"numoutlets" : 1,
									"outlettype" : [ "" ],
									"fontsize" : 10.0,
									"numinlets" : 2,
									"patching_rect" : [ 64.0, 120.0, 51.0, 18.0 ]
								}

							}
, 							{
								"box" : 								{
									"maxclass" : "comment",
									"text" : "< Ramp to value in 50 ms",
									"id" : "obj-14",
									"fontname" : "Arial",
									"numoutlets" : 0,
									"fontsize" : 10.0,
									"frgb" : [ 0.101961, 0.121569, 0.172549, 1.0 ],
									"numinlets" : 1,
									"patching_rect" : [ 112.0, 168.0, 124.0, 18.0 ]
								}

							}
, 							{
								"box" : 								{
									"maxclass" : "message",
									"text" : "$1 50",
									"id" : "obj-13",
									"fontname" : "Arial Bold",
									"numoutlets" : 1,
									"outlettype" : [ "" ],
									"fontsize" : 10.0,
									"numinlets" : 2,
									"patching_rect" : [ 64.0, 168.0, 36.0, 16.0 ]
								}

							}
, 							{
								"box" : 								{
									"maxclass" : "comment",
									"text" : "< Ramp",
									"id" : "obj-8",
									"fontname" : "Arial",
									"numoutlets" : 0,
									"fontsize" : 10.0,
									"frgb" : [ 0.101961, 0.121569, 0.172549, 1.0 ],
									"numinlets" : 1,
									"patching_rect" : [ 112.0, 192.0, 46.0, 18.0 ]
								}

							}
, 							{
								"box" : 								{
									"maxclass" : "newobj",
									"text" : "line~ 1.",
									"id" : "obj-3",
									"fontname" : "Arial Bold",
									"numoutlets" : 2,
									"outlettype" : [ "signal", "bang" ],
									"fontsize" : 10.0,
									"numinlets" : 2,
									"patching_rect" : [ 64.0, 192.0, 45.0, 18.0 ]
								}

							}
, 							{
								"box" : 								{
									"maxclass" : "comment",
									"text" : "< Amplify",
									"id" : "obj-10",
									"fontname" : "Arial",
									"numoutlets" : 0,
									"fontsize" : 10.0,
									"frgb" : [ 0.101961, 0.121569, 0.172549, 1.0 ],
									"numinlets" : 1,
									"patching_rect" : [ 83.0, 224.0, 51.0, 18.0 ]
								}

							}
, 							{
								"box" : 								{
									"maxclass" : "comment",
									"text" : "< Convert dBs to linear amplitude",
									"linecount" : 2,
									"id" : "obj-9",
									"fontname" : "Arial",
									"numoutlets" : 0,
									"fontsize" : 10.0,
									"frgb" : [ 0.101961, 0.121569, 0.172549, 1.0 ],
									"numinlets" : 1,
									"patching_rect" : [ 135.0, 96.0, 87.0, 29.0 ]
								}

							}
, 							{
								"box" : 								{
									"maxclass" : "comment",
									"text" : "Scaled signal",
									"id" : "obj-7",
									"fontname" : "Arial Bold",
									"textcolor" : [ 0.301961, 0.337255, 0.403922, 1.0 ],
									"numoutlets" : 0,
									"fontsize" : 10.0,
									"frgb" : [ 0.301961, 0.337255, 0.403922, 1.0 ],
									"numinlets" : 1,
									"patching_rect" : [ 56.0, 264.0, 74.0, 18.0 ]
								}

							}
, 							{
								"box" : 								{
									"maxclass" : "comment",
									"text" : "Gain (dB)",
									"id" : "obj-6",
									"fontname" : "Arial Bold",
									"numoutlets" : 0,
									"fontsize" : 10.0,
									"frgb" : [ 0.101961, 0.121569, 0.172549, 1.0 ],
									"numinlets" : 1,
									"patching_rect" : [ 120.0, 64.0, 55.0, 18.0 ]
								}

							}
, 							{
								"box" : 								{
									"maxclass" : "comment",
									"text" : "Active (0/1)",
									"id" : "obj-5",
									"fontname" : "Arial Bold",
									"numoutlets" : 0,
									"fontsize" : 10.0,
									"frgb" : [ 0.101961, 0.121569, 0.172549, 1.0 ],
									"numinlets" : 1,
									"patching_rect" : [ 88.0, 40.0, 64.0, 18.0 ]
								}

							}
, 							{
								"box" : 								{
									"maxclass" : "comment",
									"text" : "Input signal",
									"id" : "obj-4",
									"fontname" : "Arial Bold",
									"textcolor" : [ 0.301961, 0.337255, 0.403922, 1.0 ],
									"numoutlets" : 0,
									"fontsize" : 10.0,
									"frgb" : [ 0.301961, 0.337255, 0.403922, 1.0 ],
									"numinlets" : 1,
									"patching_rect" : [ 56.0, 16.0, 67.0, 18.0 ]
								}

							}
, 							{
								"box" : 								{
									"maxclass" : "inlet",
									"id" : "obj-2",
									"numoutlets" : 1,
									"outlettype" : [ "float" ],
									"numinlets" : 0,
									"patching_rect" : [ 96.0, 64.0, 18.0, 18.0 ],
									"comment" : ""
								}

							}
, 							{
								"box" : 								{
									"maxclass" : "inlet",
									"id" : "obj-1",
									"numoutlets" : 1,
									"outlettype" : [ "int" ],
									"numinlets" : 0,
									"patching_rect" : [ 64.0, 40.0, 18.0, 18.0 ],
									"comment" : ""
								}

							}
, 							{
								"box" : 								{
									"maxclass" : "newobj",
									"text" : "dbtoa",
									"id" : "obj-49",
									"fontname" : "Arial Bold",
									"numoutlets" : 1,
									"outlettype" : [ "" ],
									"fontsize" : 10.0,
									"numinlets" : 1,
									"patching_rect" : [ 96.0, 96.0, 38.0, 18.0 ]
								}

							}
, 							{
								"box" : 								{
									"maxclass" : "newobj",
									"text" : "*~ 1.",
									"id" : "obj-25",
									"fontname" : "Arial Bold",
									"numoutlets" : 1,
									"outlettype" : [ "signal" ],
									"fontsize" : 10.0,
									"numinlets" : 2,
									"patching_rect" : [ 32.0, 224.0, 50.5, 18.0 ]
								}

							}
, 							{
								"box" : 								{
									"maxclass" : "inlet",
									"id" : "obj-65",
									"numoutlets" : 1,
									"outlettype" : [ "" ],
									"numinlets" : 0,
									"patching_rect" : [ 32.0, 16.0, 18.0, 18.0 ],
									"comment" : ""
								}

							}
, 							{
								"box" : 								{
									"maxclass" : "outlet",
									"id" : "obj-66",
									"numoutlets" : 0,
									"numinlets" : 1,
									"patching_rect" : [ 32.0, 264.0, 18.0, 18.0 ],
									"comment" : ""
								}

							}
 ],
						"lines" : [ 							{
								"patchline" : 								{
									"source" : [ "obj-2", 0 ],
									"destination" : [ "obj-49", 0 ],
									"hidden" : 0,
									"midpoints" : [  ]
								}

							}
, 							{
								"patchline" : 								{
									"source" : [ "obj-25", 0 ],
									"destination" : [ "obj-66", 0 ],
									"hidden" : 0,
									"midpoints" : [  ]
								}

							}
, 							{
								"patchline" : 								{
									"source" : [ "obj-65", 0 ],
									"destination" : [ "obj-25", 0 ],
									"hidden" : 0,
									"midpoints" : [  ]
								}

							}
, 							{
								"patchline" : 								{
									"source" : [ "obj-13", 0 ],
									"destination" : [ "obj-3", 0 ],
									"hidden" : 0,
									"midpoints" : [  ]
								}

							}
, 							{
								"patchline" : 								{
									"source" : [ "obj-3", 0 ],
									"destination" : [ "obj-25", 1 ],
									"hidden" : 0,
									"midpoints" : [  ]
								}

							}
, 							{
								"patchline" : 								{
									"source" : [ "obj-15", 0 ],
									"destination" : [ "obj-16", 0 ],
									"hidden" : 0,
									"midpoints" : [  ]
								}

							}
, 							{
								"patchline" : 								{
									"source" : [ "obj-16", 0 ],
									"destination" : [ "obj-13", 0 ],
									"hidden" : 0,
									"midpoints" : [  ]
								}

							}
, 							{
								"patchline" : 								{
									"source" : [ "obj-49", 0 ],
									"destination" : [ "obj-15", 1 ],
									"hidden" : 0,
									"midpoints" : [  ]
								}

							}
, 							{
								"patchline" : 								{
									"source" : [ "obj-1", 0 ],
									"destination" : [ "obj-15", 0 ],
									"hidden" : 0,
									"midpoints" : [  ]
								}

							}
 ]
					}
,
					"saved_object_attributes" : 					{
						"fontname" : "Arial Bold",
						"default_fontsize" : 10.0,
						"globalpatchername" : "",
						"fontface" : 0,
						"fontsize" : 10.0,
						"default_fontface" : 0,
						"default_fontname" : "Arial Bold"
					}

				}

			}
, 			{
				"box" : 				{
					"maxclass" : "comment",
					"text" : "Sharpness",
					"id" : "obj-71",
					"fontname" : "Arial Bold",
					"numoutlets" : 0,
					"fontsize" : 10.0,
					"frgb" : [ 0.101961, 0.121569, 0.172549, 1.0 ],
					"numinlets" : 1,
					"patching_rect" : [ 184.0, 232.0, 62.0, 18.0 ]
				}

			}
, 			{
				"box" : 				{
					"maxclass" : "comment",
					"text" : "Mode",
					"id" : "obj-70",
					"fontname" : "Arial Bold",
					"numoutlets" : 0,
					"fontsize" : 10.0,
					"frgb" : [ 0.101961, 0.121569, 0.172549, 1.0 ],
					"numinlets" : 1,
					"patching_rect" : [ 232.0, 152.0, 37.0, 18.0 ]
				}

			}
, 			{
				"box" : 				{
					"maxclass" : "comment",
					"text" : "Interval",
					"id" : "obj-69",
					"fontname" : "Arial Bold",
					"numoutlets" : 0,
					"fontsize" : 10.0,
					"frgb" : [ 0.101961, 0.121569, 0.172549, 1.0 ],
					"numinlets" : 1,
					"patching_rect" : [ 320.0, 152.0, 46.0, 18.0 ]
				}

			}
, 			{
				"box" : 				{
					"maxclass" : "newobj",
					"text" : "p Convert",
					"id" : "obj-67",
					"fontname" : "Arial Bold",
					"numoutlets" : 1,
					"color" : [ 0.545098, 0.85098, 0.592157, 1.0 ],
					"outlettype" : [ "int" ],
					"fontsize" : 10.0,
					"numinlets" : 1,
					"patching_rect" : [ 320.0, 192.0, 57.0, 18.0 ],
					"patcher" : 					{
						"fileversion" : 1,
						"rect" : [ 659.0, 44.0, 301.0, 168.0 ],
						"bglocked" : 0,
						"defrect" : [ 659.0, 44.0, 301.0, 168.0 ],
						"openrect" : [ 0.0, 0.0, 0.0, 0.0 ],
						"openinpresentation" : 0,
						"default_fontsize" : 10.0,
						"default_fontface" : 0,
						"default_fontname" : "Arial Bold",
						"gridonopen" : 0,
						"gridsize" : [ 8.0, 8.0 ],
						"gridsnaponopen" : 0,
						"toolbarvisible" : 1,
						"boxanimatetime" : 200,
						"imprint" : 0,
						"enablehscroll" : 1,
						"enablevscroll" : 1,
						"devicewidth" : 0.0,
						"boxes" : [ 							{
								"box" : 								{
									"maxclass" : "comment",
									"text" : "Rate in samples",
									"id" : "obj-6",
									"fontname" : "Arial Bold",
									"numoutlets" : 0,
									"fontsize" : 10.0,
									"frgb" : [ 0.101961, 0.121569, 0.172549, 1.0 ],
									"numinlets" : 1,
									"patching_rect" : [ 112.0, 128.0, 87.0, 18.0 ]
								}

							}
, 							{
								"box" : 								{
									"maxclass" : "comment",
									"text" : "Rate in ms",
									"id" : "obj-5",
									"fontname" : "Arial Bold",
									"numoutlets" : 0,
									"fontsize" : 10.0,
									"frgb" : [ 0.101961, 0.121569, 0.172549, 1.0 ],
									"numinlets" : 1,
									"patching_rect" : [ 56.0, 16.0, 61.0, 18.0 ]
								}

							}
, 							{
								"box" : 								{
									"maxclass" : "comment",
									"text" : "Convert milliseconds to samples (according to actual sample rate), with rounding to nearest integer",
									"linecount" : 4,
									"id" : "obj-2",
									"fontname" : "Arial",
									"numoutlets" : 0,
									"fontsize" : 10.0,
									"frgb" : [ 0.101961, 0.121569, 0.172549, 1.0 ],
									"numinlets" : 1,
									"patching_rect" : [ 136.0, 48.0, 134.0, 52.0 ]
								}

							}
, 							{
								"box" : 								{
									"maxclass" : "newobj",
									"text" : "i",
									"id" : "obj-27",
									"fontname" : "Arial Bold",
									"numoutlets" : 1,
									"outlettype" : [ "int" ],
									"fontsize" : 10.0,
									"numinlets" : 2,
									"patching_rect" : [ 88.0, 96.0, 32.5, 18.0 ]
								}

							}
, 							{
								"box" : 								{
									"maxclass" : "newobj",
									"text" : "round",
									"id" : "obj-17",
									"fontname" : "Arial Bold",
									"numoutlets" : 1,
									"outlettype" : [ "" ],
									"fontsize" : 10.0,
									"numinlets" : 2,
									"patching_rect" : [ 88.0, 72.0, 39.0, 18.0 ]
								}

							}
, 							{
								"box" : 								{
									"maxclass" : "newobj",
									"text" : "mstosamps~",
									"id" : "obj-4",
									"fontname" : "Arial Bold",
									"numoutlets" : 2,
									"outlettype" : [ "signal", "float" ],
									"fontsize" : 10.0,
									"numinlets" : 1,
									"patching_rect" : [ 32.0, 48.0, 75.0, 18.0 ]
								}

							}
, 							{
								"box" : 								{
									"maxclass" : "inlet",
									"id" : "obj-65",
									"numoutlets" : 1,
									"outlettype" : [ "float" ],
									"numinlets" : 0,
									"patching_rect" : [ 32.0, 16.0, 18.0, 18.0 ],
									"comment" : ""
								}

							}
, 							{
								"box" : 								{
									"maxclass" : "outlet",
									"id" : "obj-66",
									"numoutlets" : 0,
									"numinlets" : 1,
									"patching_rect" : [ 88.0, 128.0, 18.0, 18.0 ],
									"comment" : ""
								}

							}
 ],
						"lines" : [ 							{
								"patchline" : 								{
									"source" : [ "obj-4", 1 ],
									"destination" : [ "obj-17", 0 ],
									"hidden" : 0,
									"midpoints" : [  ]
								}

							}
, 							{
								"patchline" : 								{
									"source" : [ "obj-17", 0 ],
									"destination" : [ "obj-27", 0 ],
									"hidden" : 0,
									"midpoints" : [  ]
								}

							}
, 							{
								"patchline" : 								{
									"source" : [ "obj-65", 0 ],
									"destination" : [ "obj-4", 0 ],
									"hidden" : 0,
									"midpoints" : [  ]
								}

							}
, 							{
								"patchline" : 								{
									"source" : [ "obj-27", 0 ],
									"destination" : [ "obj-66", 0 ],
									"hidden" : 0,
									"midpoints" : [  ]
								}

							}
 ]
					}
,
					"saved_object_attributes" : 					{
						"fontname" : "Arial Bold",
						"default_fontsize" : 10.0,
						"globalpatchername" : "",
						"fontface" : 0,
						"fontsize" : 10.0,
						"default_fontface" : 0,
						"default_fontname" : "Arial Bold"
					}

				}

			}
, 			{
				"box" : 				{
					"maxclass" : "comment",
					"text" : "Samples",
					"id" : "obj-64",
					"fontname" : "Arial",
					"numoutlets" : 0,
					"fontsize" : 10.0,
					"frgb" : [ 0.101961, 0.121569, 0.172549, 1.0 ],
					"numinlets" : 1,
					"patching_rect" : [ 368.0, 216.0, 49.0, 18.0 ]
				}

			}
, 			{
				"box" : 				{
					"maxclass" : "number",
					"prototypename" : "Live",
					"id" : "obj-63",
					"fontname" : "Arial Bold",
					"numoutlets" : 2,
					"outlettype" : [ "int", "bang" ],
					"fontsize" : 10.0,
					"triscale" : 0.75,
					"numinlets" : 1,
					"patching_rect" : [ 320.0, 216.0, 48.0, 18.0 ]
				}

			}
, 			{
				"box" : 				{
					"maxclass" : "comment",
					"text" : "ms",
					"id" : "obj-60",
					"fontname" : "Arial",
					"numoutlets" : 0,
					"fontsize" : 10.0,
					"frgb" : [ 0.101961, 0.121569, 0.172549, 1.0 ],
					"numinlets" : 1,
					"patching_rect" : [ 368.0, 168.0, 22.0, 18.0 ]
				}

			}
, 			{
				"box" : 				{
					"maxclass" : "flonum",
					"prototypename" : "Live",
					"id" : "obj-61",
					"fontname" : "Arial Bold",
					"numoutlets" : 2,
					"outlettype" : [ "float", "bang" ],
					"fontsize" : 10.0,
					"triscale" : 0.75,
					"numinlets" : 1,
					"patching_rect" : [ 320.0, 168.0, 48.0, 18.0 ]
				}

			}
, 			{
				"box" : 				{
					"maxclass" : "umenu",
					"id" : "obj-58",
					"fontname" : "Arial Bold",
					"numoutlets" : 3,
					"outlettype" : [ "int", "", "" ],
					"fontsize" : 10.0,
					"items" : [ "absolute", ",", "rms", ",", "bipolar" ],
					"types" : [  ],
					"numinlets" : 1,
					"patching_rect" : [ 216.0, 168.0, 72.0, 18.0 ]
				}

			}
, 			{
				"box" : 				{
					"maxclass" : "flonum",
					"prototypename" : "Live",
					"id" : "obj-56",
					"fontname" : "Arial Bold",
					"numoutlets" : 2,
					"outlettype" : [ "float", "bang" ],
					"fontsize" : 10.0,
					"triscale" : 0.75,
					"numinlets" : 1,
					"patching_rect" : [ 176.0, 248.0, 40.0, 18.0 ]
				}

			}
, 			{
				"box" : 				{
					"maxclass" : "comment",
					"text" : "0/1",
					"id" : "obj-55",
					"fontname" : "Arial",
					"numoutlets" : 0,
					"fontsize" : 10.0,
					"frgb" : [ 0.101961, 0.121569, 0.172549, 1.0 ],
					"numinlets" : 1,
					"patching_rect" : [ 74.0, 168.0, 22.0, 18.0 ]
				}

			}
, 			{
				"box" : 				{
					"maxclass" : "comment",
					"text" : "dB",
					"id" : "obj-54",
					"fontname" : "Arial",
					"numoutlets" : 0,
					"fontsize" : 10.0,
					"frgb" : [ 0.101961, 0.121569, 0.172549, 1.0 ],
					"numinlets" : 1,
					"patching_rect" : [ 117.0, 168.0, 21.0, 18.0 ]
				}

			}
, 			{
				"box" : 				{
					"maxclass" : "flonum",
					"prototypename" : "Live",
					"id" : "obj-53",
					"fontname" : "Arial Bold",
					"numoutlets" : 2,
					"outlettype" : [ "float", "bang" ],
					"fontsize" : 10.0,
					"triscale" : 0.75,
					"numinlets" : 1,
					"patching_rect" : [ 136.0, 168.0, 40.0, 18.0 ]
				}

			}
, 			{
				"box" : 				{
					"maxclass" : "toggle",
					"id" : "obj-51",
					"numoutlets" : 1,
					"outlettype" : [ "int" ],
					"numinlets" : 1,
					"patching_rect" : [ 96.0, 168.0, 18.0, 18.0 ]
				}

			}
, 			{
				"box" : 				{
					"maxclass" : "comment",
					"text" : "Power function >",
					"id" : "obj-46",
					"fontname" : "Arial Italic",
					"numoutlets" : 0,
					"fontsize" : 10.0,
					"frgb" : [ 0.101961, 0.121569, 0.172549, 1.0 ],
					"numinlets" : 1,
					"patching_rect" : [ 172.0, 344.0, 85.0, 18.0 ]
				}

			}
, 			{
				"box" : 				{
					"maxclass" : "comment",
					"text" : "< Envelope (linear amplitude)",
					"linecount" : 3,
					"id" : "obj-45",
					"fontname" : "Arial Italic",
					"numoutlets" : 0,
					"fontsize" : 10.0,
					"frgb" : [ 0.101961, 0.121569, 0.172549, 1.0 ],
					"numinlets" : 1,
					"patching_rect" : [ 272.0, 464.0, 63.0, 41.0 ]
				}

			}
, 			{
				"box" : 				{
					"maxclass" : "newobj",
					"text" : "p Convert",
					"id" : "obj-100",
					"fontname" : "Arial Bold",
					"numoutlets" : 1,
					"color" : [ 0.545098, 0.85098, 0.592157, 1.0 ],
					"outlettype" : [ "float" ],
					"fontsize" : 10.0,
					"numinlets" : 1,
					"patching_rect" : [ 176.0, 272.0, 57.0, 18.0 ],
					"patcher" : 					{
						"fileversion" : 1,
						"rect" : [ 659.0, 44.0, 217.0, 266.0 ],
						"bglocked" : 0,
						"defrect" : [ 659.0, 44.0, 217.0, 266.0 ],
						"openrect" : [ 0.0, 0.0, 0.0, 0.0 ],
						"openinpresentation" : 0,
						"default_fontsize" : 10.0,
						"default_fontface" : 0,
						"default_fontname" : "Arial Bold",
						"gridonopen" : 0,
						"gridsize" : [ 8.0, 8.0 ],
						"gridsnaponopen" : 0,
						"toolbarvisible" : 1,
						"boxanimatetime" : 200,
						"imprint" : 0,
						"enablehscroll" : 1,
						"enablevscroll" : 1,
						"devicewidth" : 0.0,
						"boxes" : [ 							{
								"box" : 								{
									"maxclass" : "newobj",
									"text" : "!/ 1.",
									"id" : "obj-3",
									"fontname" : "Arial Bold",
									"numoutlets" : 1,
									"outlettype" : [ "float" ],
									"fontsize" : 10.0,
									"numinlets" : 2,
									"patching_rect" : [ 40.0, 144.0, 32.5, 18.0 ]
								}

							}
, 							{
								"box" : 								{
									"maxclass" : "newobj",
									"text" : "loadmess 0.",
									"id" : "obj-6",
									"fontname" : "Arial Bold",
									"numoutlets" : 1,
									"outlettype" : [ "" ],
									"fontsize" : 10.0,
									"numinlets" : 1,
									"patching_rect" : [ 88.0, 24.0, 68.0, 18.0 ]
								}

							}
, 							{
								"box" : 								{
									"maxclass" : "flonum",
									"prototypename" : "Live",
									"id" : "obj-4",
									"fontname" : "Arial Bold",
									"numoutlets" : 2,
									"outlettype" : [ "float", "bang" ],
									"fontsize" : 10.0,
									"triscale" : 0.75,
									"numinlets" : 1,
									"patching_rect" : [ 40.0, 184.0, 40.0, 18.0 ]
								}

							}
, 							{
								"box" : 								{
									"maxclass" : "comment",
									"text" : "Split and scale parameter values to exponents",
									"linecount" : 3,
									"id" : "obj-49",
									"fontname" : "Arial Bold",
									"numoutlets" : 0,
									"fontsize" : 10.0,
									"frgb" : [ 0.101961, 0.121569, 0.172549, 1.0 ],
									"numinlets" : 1,
									"patching_rect" : [ 88.0, 176.0, 98.0, 41.0 ]
								}

							}
, 							{
								"box" : 								{
									"maxclass" : "comment",
									"text" : "<-------",
									"id" : "obj-2",
									"fontname" : "Arial",
									"numoutlets" : 0,
									"fontsize" : 10.0,
									"frgb" : [ 0.101961, 0.121569, 0.172549, 1.0 ],
									"numinlets" : 1,
									"patching_rect" : [ 80.0, 72.0, 68.0, 18.0 ]
								}

							}
, 							{
								"box" : 								{
									"maxclass" : "comment",
									"text" : "< 0. => \"log\"\n= 0. => \"lin\"\n> 0. => \"exp\"",
									"linecount" : 3,
									"id" : "obj-72",
									"fontname" : "Arial",
									"numoutlets" : 0,
									"fontsize" : 10.0,
									"frgb" : [ 0.101961, 0.121569, 0.172549, 1.0 ],
									"numinlets" : 1,
									"patching_rect" : [ 114.0, 60.0, 68.0, 41.0 ]
								}

							}
, 							{
								"box" : 								{
									"maxclass" : "flonum",
									"prototypename" : "Live",
									"id" : "obj-68",
									"fontname" : "Arial Bold",
									"numoutlets" : 2,
									"outlettype" : [ "float", "bang" ],
									"minimum" : -1.0,
									"fontsize" : 10.0,
									"maximum" : 1.0,
									"triscale" : 0.75,
									"numinlets" : 1,
									"patching_rect" : [ 40.0, 72.0, 40.0, 18.0 ]
								}

							}
, 							{
								"box" : 								{
									"maxclass" : "comment",
									"text" : "Exponent",
									"id" : "obj-7",
									"fontname" : "Arial Bold",
									"numoutlets" : 0,
									"fontsize" : 10.0,
									"frgb" : [ 0.101961, 0.121569, 0.172549, 1.0 ],
									"numinlets" : 1,
									"patching_rect" : [ 59.0, 224.0, 56.0, 18.0 ]
								}

							}
, 							{
								"box" : 								{
									"maxclass" : "comment",
									"text" : "Sharpness",
									"id" : "obj-5",
									"fontname" : "Arial Bold",
									"numoutlets" : 0,
									"fontsize" : 10.0,
									"frgb" : [ 0.101961, 0.121569, 0.172549, 1.0 ],
									"numinlets" : 1,
									"patching_rect" : [ 16.0, 16.0, 62.0, 18.0 ]
								}

							}
, 							{
								"box" : 								{
									"maxclass" : "outlet",
									"prototypename" : "M4L.Arial10",
									"id" : "obj-52",
									"numoutlets" : 0,
									"numinlets" : 1,
									"patching_rect" : [ 40.0, 224.0, 18.0, 18.0 ],
									"comment" : ""
								}

							}
, 							{
								"box" : 								{
									"maxclass" : "inlet",
									"prototypename" : "M4L.Arial10",
									"id" : "obj-1",
									"numoutlets" : 1,
									"outlettype" : [ "float" ],
									"numinlets" : 0,
									"patching_rect" : [ 40.0, 40.0, 18.0, 18.0 ],
									"comment" : ""
								}

							}
, 							{
								"box" : 								{
									"maxclass" : "newobj",
									"text" : "scale 0. 1. 1. 4.",
									"id" : "obj-136",
									"fontname" : "Arial Bold",
									"numoutlets" : 1,
									"outlettype" : [ "" ],
									"fontsize" : 10.0,
									"numinlets" : 6,
									"patching_rect" : [ 80.0, 144.0, 86.5, 18.0 ]
								}

							}
, 							{
								"box" : 								{
									"maxclass" : "newobj",
									"text" : "scale -1. 0. 4. 1.",
									"id" : "obj-139",
									"fontname" : "Arial Bold",
									"numoutlets" : 1,
									"outlettype" : [ "" ],
									"fontsize" : 10.0,
									"numinlets" : 6,
									"patching_rect" : [ 40.0, 120.0, 86.5, 18.0 ]
								}

							}
, 							{
								"box" : 								{
									"maxclass" : "newobj",
									"text" : "split -1 0.",
									"id" : "obj-140",
									"fontname" : "Arial Bold",
									"numoutlets" : 2,
									"outlettype" : [ "float", "float" ],
									"fontsize" : 10.0,
									"numinlets" : 3,
									"patching_rect" : [ 40.0, 96.0, 59.0, 18.0 ]
								}

							}
 ],
						"lines" : [ 							{
								"patchline" : 								{
									"source" : [ "obj-139", 0 ],
									"destination" : [ "obj-3", 0 ],
									"hidden" : 0,
									"midpoints" : [  ]
								}

							}
, 							{
								"patchline" : 								{
									"source" : [ "obj-136", 0 ],
									"destination" : [ "obj-4", 0 ],
									"hidden" : 0,
									"midpoints" : [  ]
								}

							}
, 							{
								"patchline" : 								{
									"source" : [ "obj-6", 0 ],
									"destination" : [ "obj-68", 0 ],
									"hidden" : 0,
									"midpoints" : [  ]
								}

							}
, 							{
								"patchline" : 								{
									"source" : [ "obj-4", 0 ],
									"destination" : [ "obj-52", 0 ],
									"hidden" : 0,
									"midpoints" : [  ]
								}

							}
, 							{
								"patchline" : 								{
									"source" : [ "obj-1", 0 ],
									"destination" : [ "obj-68", 0 ],
									"hidden" : 0,
									"midpoints" : [  ]
								}

							}
, 							{
								"patchline" : 								{
									"source" : [ "obj-68", 0 ],
									"destination" : [ "obj-140", 0 ],
									"hidden" : 0,
									"midpoints" : [  ]
								}

							}
, 							{
								"patchline" : 								{
									"source" : [ "obj-140", 1 ],
									"destination" : [ "obj-136", 0 ],
									"hidden" : 0,
									"midpoints" : [  ]
								}

							}
, 							{
								"patchline" : 								{
									"source" : [ "obj-140", 0 ],
									"destination" : [ "obj-139", 0 ],
									"hidden" : 0,
									"midpoints" : [ 49.5, 112.0 ]
								}

							}
, 							{
								"patchline" : 								{
									"source" : [ "obj-3", 0 ],
									"destination" : [ "obj-4", 0 ],
									"hidden" : 0,
									"midpoints" : [  ]
								}

							}
 ]
					}
,
					"saved_object_attributes" : 					{
						"fontname" : "Arial Bold",
						"default_fontsize" : 10.0,
						"globalpatchername" : "",
						"fontface" : 0,
						"fontsize" : 10.0,
						"default_fontface" : 0,
						"default_fontname" : "Arial Bold"
					}

				}

			}
, 			{
				"box" : 				{
					"maxclass" : "newobj",
					"text" : "pow~",
					"id" : "obj-9",
					"fontname" : "Arial Bold",
					"numoutlets" : 1,
					"outlettype" : [ "signal" ],
					"fontsize" : 10.0,
					"numinlets" : 2,
					"patching_rect" : [ 256.0, 344.0, 35.0, 18.0 ]
				}

			}
, 			{
				"box" : 				{
					"maxclass" : "comment",
					"text" : "< Use optional attributes to set parameters default values (e.g. \"@input 0 @mode absolute @interval 50\")",
					"linecount" : 2,
					"id" : "obj-34",
					"fontname" : "Arial Italic",
					"numoutlets" : 0,
					"fontsize" : 10.0,
					"frgb" : [ 0.101961, 0.121569, 0.172549, 1.0 ],
					"numinlets" : 1,
					"patching_rect" : [ 208.0, 48.0, 260.0, 29.0 ]
				}

			}
, 			{
				"box" : 				{
					"maxclass" : "comment",
					"text" : "< Convert linear amplitude to deciBels",
					"linecount" : 2,
					"id" : "obj-32",
					"fontname" : "Arial Italic",
					"numoutlets" : 0,
					"fontsize" : 10.0,
					"frgb" : [ 0.101961, 0.121569, 0.172549, 1.0 ],
					"numinlets" : 1,
					"patching_rect" : [ 504.0, 504.0, 106.0, 29.0 ]
				}

			}
, 			{
				"box" : 				{
					"maxclass" : "comment",
					"text" : "Convert signal value to numbers at <ms> rate",
					"linecount" : 3,
					"id" : "obj-30",
					"fontname" : "Arial Italic",
					"numoutlets" : 0,
					"fontsize" : 10.0,
					"frgb" : [ 0.101961, 0.121569, 0.172549, 1.0 ],
					"numinlets" : 1,
					"patching_rect" : [ 600.0, 416.0, 88.0, 41.0 ]
				}

			}
, 			{
				"box" : 				{
					"maxclass" : "comment",
					"text" : "Signal average",
					"id" : "obj-28",
					"fontname" : "Arial Italic",
					"numoutlets" : 0,
					"fontsize" : 10.0,
					"frgb" : [ 0.101961, 0.121569, 0.172549, 1.0 ],
					"numinlets" : 1,
					"patching_rect" : [ 304.0, 256.0, 77.0, 18.0 ]
				}

			}
, 			{
				"box" : 				{
					"maxclass" : "comment",
					"text" : "< Parse messages",
					"id" : "obj-21",
					"fontname" : "Arial Italic",
					"numoutlets" : 0,
					"fontsize" : 10.0,
					"frgb" : [ 0.101961, 0.121569, 0.172549, 1.0 ],
					"numinlets" : 1,
					"patching_rect" : [ 480.0, 104.0, 94.0, 18.0 ]
				}

			}
, 			{
				"box" : 				{
					"maxclass" : "comment",
					"text" : "Attributes",
					"id" : "obj-19",
					"fontname" : "Arial Bold",
					"numoutlets" : 0,
					"fontsize" : 10.0,
					"frgb" : [ 0.101961, 0.121569, 0.172549, 1.0 ],
					"numinlets" : 1,
					"patching_rect" : [ 141.0, 28.0, 58.0, 18.0 ]
				}

			}
, 			{
				"box" : 				{
					"maxclass" : "newobj",
					"text" : "patcherargs",
					"id" : "obj-18",
					"fontname" : "Arial Bold",
					"numoutlets" : 2,
					"outlettype" : [ "", "" ],
					"fontsize" : 10.0,
					"numinlets" : 1,
					"patching_rect" : [ 136.0, 48.0, 68.0, 18.0 ]
				}

			}
, 			{
				"box" : 				{
					"maxclass" : "comment",
					"text" : "Envelope in dBs",
					"linecount" : 2,
					"id" : "obj-13",
					"fontname" : "Arial Bold",
					"numoutlets" : 0,
					"fontsize" : 10.0,
					"frgb" : [ 0.101961, 0.121569, 0.172549, 1.0 ],
					"numinlets" : 1,
					"patching_rect" : [ 456.0, 560.0, 60.0, 29.0 ]
				}

			}
, 			{
				"box" : 				{
					"maxclass" : "comment",
					"text" : "Envelope in linear amp.",
					"linecount" : 2,
					"id" : "obj-12",
					"fontname" : "Arial Bold",
					"numoutlets" : 0,
					"fontsize" : 10.0,
					"frgb" : [ 0.101961, 0.121569, 0.172549, 1.0 ],
					"numinlets" : 1,
					"patching_rect" : [ 384.0, 560.0, 70.0, 29.0 ]
				}

			}
, 			{
				"box" : 				{
					"maxclass" : "outlet",
					"id" : "obj-8",
					"numoutlets" : 0,
					"numinlets" : 1,
					"patching_rect" : [ 464.0, 536.0, 18.0, 18.0 ],
					"comment" : ""
				}

			}
, 			{
				"box" : 				{
					"maxclass" : "newobj",
					"text" : "atodb",
					"id" : "obj-7",
					"fontname" : "Arial Bold",
					"numoutlets" : 1,
					"outlettype" : [ "" ],
					"fontsize" : 10.0,
					"numinlets" : 1,
					"patching_rect" : [ 464.0, 504.0, 38.0, 18.0 ]
				}

			}
, 			{
				"box" : 				{
					"maxclass" : "outlet",
					"id" : "obj-6",
					"numoutlets" : 0,
					"numinlets" : 1,
					"patching_rect" : [ 408.0, 536.0, 18.0, 18.0 ],
					"comment" : ""
				}

			}
, 			{
				"box" : 				{
					"maxclass" : "newobj",
					"text" : "snapshot~ 50",
					"id" : "obj-5",
					"fontname" : "Arial Bold",
					"numoutlets" : 1,
					"outlettype" : [ "float" ],
					"fontsize" : 10.0,
					"numinlets" : 2,
					"patching_rect" : [ 408.0, 416.0, 83.0, 18.0 ]
				}

			}
, 			{
				"box" : 				{
					"maxclass" : "newobj",
					"text" : "average~ 44100 absolute",
					"id" : "obj-3",
					"fontname" : "Arial Bold",
					"numoutlets" : 1,
					"outlettype" : [ "signal" ],
					"fontsize" : 10.0,
					"numinlets" : 1,
					"patching_rect" : [ 272.0, 272.0, 129.0, 18.0 ]
				}

			}
, 			{
				"box" : 				{
					"maxclass" : "newobj",
					"text" : "route active input sharp mode interval smooth rate ramp grain",
					"id" : "obj-2",
					"fontname" : "Arial Bold",
					"numoutlets" : 10,
					"outlettype" : [ "", "", "", "", "", "", "", "", "", "" ],
					"fontsize" : 10.0,
					"numinlets" : 1,
					"patching_rect" : [ 96.0, 104.0, 379.0, 18.0 ]
				}

			}
, 			{
				"box" : 				{
					"maxclass" : "comment",
					"prototypename" : "M4L.patcher-summary",
					"text" : "Signal envelope follower with shape controls",
					"linecount" : 2,
					"id" : "obj-43",
					"fontname" : "Arial Bold Italic",
					"numoutlets" : 0,
					"fontsize" : 11.0,
					"frgb" : [ 0.101961, 0.121569, 0.172549, 1.0 ],
					"numinlets" : 1,
					"patching_rect" : [ 536.0, 48.0, 142.0, 32.0 ]
				}

			}
, 			{
				"box" : 				{
					"maxclass" : "comment",
					"prototypename" : "M4L.subpatcher-title",
					"text" : "M4L.Envfol1~",
					"id" : "obj-33",
					"fontname" : "Arial Bold Italic",
					"textcolor" : [ 0.3, 0.34, 0.4, 1.0 ],
					"numoutlets" : 0,
					"fontsize" : 18.0,
					"frgb" : [ 0.3, 0.34, 0.4, 1.0 ],
					"numinlets" : 1,
					"patching_rect" : [ 536.0, 24.0, 127.0, 27.0 ]
				}

			}
, 			{
				"box" : 				{
					"maxclass" : "comment",
					"text" : "Envelope signal",
					"linecount" : 2,
					"id" : "obj-20",
					"fontname" : "Arial Bold",
					"textcolor" : [ 0.3, 0.34, 0.4, 1.0 ],
					"numoutlets" : 0,
					"fontsize" : 10.0,
					"frgb" : [ 0.3, 0.34, 0.4, 1.0 ],
					"numinlets" : 1,
					"patching_rect" : [ 240.0, 560.0, 56.0, 29.0 ]
				}

			}
, 			{
				"box" : 				{
					"maxclass" : "comment",
					"text" : "Messages",
					"id" : "obj-16",
					"fontname" : "Arial Bold",
					"numoutlets" : 0,
					"fontsize" : 10.0,
					"frgb" : [ 0.101961, 0.121569, 0.172549, 1.0 ],
					"numinlets" : 1,
					"patching_rect" : [ 78.0, 28.0, 58.0, 18.0 ]
				}

			}
, 			{
				"box" : 				{
					"maxclass" : "comment",
					"text" : "Input signal",
					"linecount" : 2,
					"id" : "obj-11",
					"fontname" : "Arial Bold",
					"textcolor" : [ 0.3, 0.34, 0.4, 1.0 ],
					"numoutlets" : 0,
					"fontsize" : 10.0,
					"frgb" : [ 0.3, 0.34, 0.4, 1.0 ],
					"numinlets" : 1,
					"patching_rect" : [ 15.0, 41.0, 40.0, 29.0 ]
				}

			}
, 			{
				"box" : 				{
					"maxclass" : "inlet",
					"id" : "obj-38",
					"numoutlets" : 1,
					"outlettype" : [ "" ],
					"numinlets" : 0,
					"patching_rect" : [ 56.0, 48.0, 18.0, 18.0 ],
					"comment" : ""
				}

			}
, 			{
				"box" : 				{
					"maxclass" : "inlet",
					"id" : "obj-40",
					"numoutlets" : 1,
					"outlettype" : [ "" ],
					"numinlets" : 0,
					"patching_rect" : [ 96.0, 48.0, 18.0, 18.0 ],
					"comment" : ""
				}

			}
, 			{
				"box" : 				{
					"maxclass" : "outlet",
					"id" : "obj-41",
					"numoutlets" : 0,
					"numinlets" : 1,
					"patching_rect" : [ 256.0, 536.0, 18.0, 18.0 ],
					"comment" : ""
				}

			}
 ],
		"lines" : [ 			{
				"patchline" : 				{
					"source" : [ "obj-4", 0 ],
					"destination" : [ "obj-5", 0 ],
					"hidden" : 0,
					"midpoints" : [  ]
				}

			}
, 			{
				"patchline" : 				{
					"source" : [ "obj-4", 0 ],
					"destination" : [ "obj-41", 0 ],
					"hidden" : 0,
					"midpoints" : [  ]
				}

			}
, 			{
				"patchline" : 				{
					"source" : [ "obj-29", 0 ],
					"destination" : [ "obj-4", 2 ],
					"hidden" : 0,
					"midpoints" : [  ]
				}

			}
, 			{
				"patchline" : 				{
					"source" : [ "obj-29", 0 ],
					"destination" : [ "obj-4", 1 ],
					"hidden" : 0,
					"midpoints" : [  ]
				}

			}
, 			{
				"patchline" : 				{
					"source" : [ "obj-17", 0 ],
					"destination" : [ "obj-25", 0 ],
					"hidden" : 0,
					"midpoints" : [  ]
				}

			}
, 			{
				"patchline" : 				{
					"source" : [ "obj-25", 0 ],
					"destination" : [ "obj-29", 0 ],
					"hidden" : 0,
					"midpoints" : [  ]
				}

			}
, 			{
				"patchline" : 				{
					"source" : [ "obj-9", 0 ],
					"destination" : [ "obj-4", 0 ],
					"hidden" : 0,
					"midpoints" : [  ]
				}

			}
, 			{
				"patchline" : 				{
					"source" : [ "obj-7", 0 ],
					"destination" : [ "obj-8", 0 ],
					"hidden" : 0,
					"midpoints" : [  ]
				}

			}
, 			{
				"patchline" : 				{
					"source" : [ "obj-56", 0 ],
					"destination" : [ "obj-100", 0 ],
					"hidden" : 0,
					"midpoints" : [  ]
				}

			}
, 			{
				"patchline" : 				{
					"source" : [ "obj-61", 0 ],
					"destination" : [ "obj-67", 0 ],
					"hidden" : 0,
					"midpoints" : [  ]
				}

			}
, 			{
				"patchline" : 				{
					"source" : [ "obj-67", 0 ],
					"destination" : [ "obj-63", 0 ],
					"hidden" : 0,
					"midpoints" : [  ]
				}

			}
, 			{
				"patchline" : 				{
					"source" : [ "obj-38", 0 ],
					"destination" : [ "obj-74", 0 ],
					"hidden" : 0,
					"midpoints" : [  ]
				}

			}
, 			{
				"patchline" : 				{
					"source" : [ "obj-51", 0 ],
					"destination" : [ "obj-74", 1 ],
					"hidden" : 0,
					"midpoints" : [  ]
				}

			}
, 			{
				"patchline" : 				{
					"source" : [ "obj-53", 0 ],
					"destination" : [ "obj-74", 2 ],
					"hidden" : 0,
					"midpoints" : [  ]
				}

			}
, 			{
				"patchline" : 				{
					"source" : [ "obj-74", 0 ],
					"destination" : [ "obj-3", 0 ],
					"hidden" : 0,
					"midpoints" : [ 65.5, 224.5, 281.5, 224.5 ]
				}

			}
, 			{
				"patchline" : 				{
					"source" : [ "obj-63", 0 ],
					"destination" : [ "obj-3", 0 ],
					"hidden" : 0,
					"midpoints" : [  ]
				}

			}
, 			{
				"patchline" : 				{
					"source" : [ "obj-58", 1 ],
					"destination" : [ "obj-3", 0 ],
					"hidden" : 0,
					"midpoints" : [  ]
				}

			}
, 			{
				"patchline" : 				{
					"source" : [ "obj-3", 0 ],
					"destination" : [ "obj-9", 1 ],
					"hidden" : 0,
					"midpoints" : [  ]
				}

			}
, 			{
				"patchline" : 				{
					"source" : [ "obj-5", 0 ],
					"destination" : [ "obj-22", 0 ],
					"hidden" : 0,
					"midpoints" : [  ]
				}

			}
, 			{
				"patchline" : 				{
					"source" : [ "obj-22", 0 ],
					"destination" : [ "obj-24", 0 ],
					"hidden" : 0,
					"midpoints" : [  ]
				}

			}
, 			{
				"patchline" : 				{
					"source" : [ "obj-24", 0 ],
					"destination" : [ "obj-6", 0 ],
					"hidden" : 0,
					"midpoints" : [  ]
				}

			}
, 			{
				"patchline" : 				{
					"source" : [ "obj-24", 0 ],
					"destination" : [ "obj-7", 0 ],
					"hidden" : 0,
					"midpoints" : [  ]
				}

			}
, 			{
				"patchline" : 				{
					"source" : [ "obj-2", 5 ],
					"destination" : [ "obj-17", 0 ],
					"hidden" : 0,
					"midpoints" : [  ]
				}

			}
, 			{
				"patchline" : 				{
					"source" : [ "obj-18", 1 ],
					"destination" : [ "obj-2", 0 ],
					"hidden" : 0,
					"midpoints" : [  ]
				}

			}
, 			{
				"patchline" : 				{
					"source" : [ "obj-40", 0 ],
					"destination" : [ "obj-2", 0 ],
					"hidden" : 0,
					"midpoints" : [  ]
				}

			}
, 			{
				"patchline" : 				{
					"source" : [ "obj-2", 0 ],
					"destination" : [ "obj-51", 0 ],
					"hidden" : 0,
					"midpoints" : [  ]
				}

			}
, 			{
				"patchline" : 				{
					"source" : [ "obj-2", 1 ],
					"destination" : [ "obj-53", 0 ],
					"hidden" : 0,
					"midpoints" : [  ]
				}

			}
, 			{
				"patchline" : 				{
					"source" : [ "obj-2", 2 ],
					"destination" : [ "obj-56", 0 ],
					"hidden" : 0,
					"midpoints" : [  ]
				}

			}
, 			{
				"patchline" : 				{
					"source" : [ "obj-2", 4 ],
					"destination" : [ "obj-61", 0 ],
					"hidden" : 0,
					"midpoints" : [  ]
				}

			}
, 			{
				"patchline" : 				{
					"source" : [ "obj-2", 3 ],
					"destination" : [ "obj-58", 0 ],
					"hidden" : 0,
					"midpoints" : [  ]
				}

			}
, 			{
				"patchline" : 				{
					"source" : [ "obj-42", 0 ],
					"destination" : [ "obj-5", 1 ],
					"hidden" : 0,
					"midpoints" : [  ]
				}

			}
, 			{
				"patchline" : 				{
					"source" : [ "obj-2", 6 ],
					"destination" : [ "obj-42", 0 ],
					"hidden" : 0,
					"midpoints" : [  ]
				}

			}
, 			{
				"patchline" : 				{
					"source" : [ "obj-48", 0 ],
					"destination" : [ "obj-22", 1 ],
					"hidden" : 0,
					"midpoints" : [  ]
				}

			}
, 			{
				"patchline" : 				{
					"source" : [ "obj-2", 7 ],
					"destination" : [ "obj-48", 0 ],
					"hidden" : 0,
					"midpoints" : [  ]
				}

			}
, 			{
				"patchline" : 				{
					"source" : [ "obj-35", 0 ],
					"destination" : [ "obj-24", 2 ],
					"hidden" : 0,
					"midpoints" : [  ]
				}

			}
, 			{
				"patchline" : 				{
					"source" : [ "obj-2", 8 ],
					"destination" : [ "obj-35", 0 ],
					"hidden" : 0,
					"midpoints" : [  ]
				}

			}
, 			{
				"patchline" : 				{
					"source" : [ "obj-10", 0 ],
					"destination" : [ "obj-61", 0 ],
					"hidden" : 0,
					"color" : [ 0.494118, 0.556863, 0.607843, 1.0 ],
					"midpoints" : [  ]
				}

			}
, 			{
				"patchline" : 				{
					"source" : [ "obj-10", 0 ],
					"destination" : [ "obj-17", 0 ],
					"hidden" : 0,
					"color" : [ 0.494118, 0.556863, 0.607843, 1.0 ],
					"midpoints" : [  ]
				}

			}
, 			{
				"patchline" : 				{
					"source" : [ "obj-10", 0 ],
					"destination" : [ "obj-42", 0 ],
					"hidden" : 0,
					"color" : [ 0.494118, 0.556863, 0.607843, 1.0 ],
					"midpoints" : [  ]
				}

			}
, 			{
				"patchline" : 				{
					"source" : [ "obj-10", 0 ],
					"destination" : [ "obj-48", 0 ],
					"hidden" : 0,
					"color" : [ 0.494118, 0.556863, 0.607843, 1.0 ],
					"midpoints" : [  ]
				}

			}
, 			{
				"patchline" : 				{
					"source" : [ "obj-100", 0 ],
					"destination" : [ "obj-59", 0 ],
					"hidden" : 0,
					"midpoints" : [  ]
				}

			}
, 			{
				"patchline" : 				{
					"source" : [ "obj-59", 0 ],
					"destination" : [ "obj-9", 0 ],
					"hidden" : 0,
					"midpoints" : [  ]
				}

			}
 ]
	}

}
